<?xml version="1.0" encoding="utf-8"?><svg xmlns="http://www.w3.org/2000/svg" xmlns:xlink="http://www.w3.org/1999/xlink" version="1.1" width="370px" height="370px" viewBox="0 0 370 370"><rect x="0" y="0" width="70" height="10"></rect><rect x="80" y="0" width="20" height="10"></rect><rect x="130" y="0" width="10" height="10"></rect><rect x="150" y="0" width="20" height="10"></rect><rect x="190" y="0" width="10" height="10"></rect><rect x="220" y="0" width="10" height="10"></rect><rect x="280" y="0" width="10" height="10"></rect><rect x="300" y="0" width="70" height="10"></rect><rect x="0" y="10" width="10" height="10"></rect><rect x="60" y="10" width="10" height="10"></rect><rect x="130" y="10" width="20" height="10"></rect><rect x="180" y="10" width="10" height="10"></rect><rect x="200" y="10" width="40" height="10"></rect><rect x="280" y="10" width="10" height="10"></rect><rect x="300" y="10" width="10" height="10"></rect><rect x="360" y="10" width="10" height="10"></rect><rect x="0" y="20" width="10" height="10"></rect><rect x="20" y="20" width="30" height="10"></rect><rect x="60" y="20" width="10" height="10"></rect><rect x="80" y="20" width="10" height="10"></rect><rect x="110" y="20" width="30" height="10"></rect><rect x="150" y="20" width="10" height="10"></rect><rect x="180" y="20" width="10" height="10"></rect><rect x="250" y="20" width="30" height="10"></rect><rect x="300" y="20" width="10" height="10"></rect><rect x="320" y="20" width="30" height="10"></rect><rect x="360" y="20" width="10" height="10"></rect><rect x="0" y="30" width="10" height="10"></rect><rect x="20" y="30" width="30" height="10"></rect><rect x="60" y="30" width="10" height="10"></rect><rect x="80" y="30" width="20" height="10"></rect><rect x="110" y="30" width="10" height="10"></rect><rect x="130" y="30" width="10" height="10"></rect><rect x="150" y="30" width="50" height="10"></rect><rect x="230" y="30" width="30" height="10"></rect><rect x="300" y="30" width="10" height="10"></rect><rect x="320" y="30" width="30" height="10"></rect><rect x="360" y="30" width="10" height="10"></rect><rect x="0" y="40" width="10" height="10"></rect><rect x="20" y="40" width="30" height="10"></rect><rect x="60" y="40" width="10" height="10"></rect><rect x="80" y="40" width="40" height="10"></rect><rect x="130" y="40" width="30" height="10"></rect><rect x="170" y="40" width="30" height="10"></rect><rect x="220" y="40" width="10" height="10"></rect><rect x="240" y="40" width="40" height="10"></rect><rect x="300" y="40" width="10" height="10"></rect><rect x="320" y="40" width="30" height="10"></rect><rect x="360" y="40" width="10" height="10"></rect><rect x="0" y="50" width="10" height="10"></rect><rect x="60" y="50" width="10" height="10"></rect><rect x="90" y="50" width="10" height="10"></rect><rect x="120" y="50" width="30" height="10"></rect><rect x="170" y="50" width="10" height="10"></rect><rect x="190" y="50" width="20" height="10"></rect><rect x="260" y="50" width="10" height="10"></rect><rect x="280" y="50" width="10" height="10"></rect><rect x="300" y="50" width="10" height="10"></rect><rect x="360" y="50" width="10" height="10"></rect><rect x="0" y="60" width="70" height="10"></rect><rect x="80" y="60" width="10" height="10"></rect><rect x="100" y="60" width="10" height="10"></rect><rect x="120" y="60" width="10" height="10"></rect><rect x="140" y="60" width="10" height="10"></rect><rect x="160" y="60" width="10" height="10"></rect><rect x="180" y="60" width="10" height="10"></rect><rect x="200" y="60" width="10" height="10"></rect><rect x="220" y="60" width="10" height="10"></rect><rect x="240" y="60" width="10" height="10"></rect><rect x="260" y="60" width="10" height="10"></rect><rect x="280" y="60" width="10" height="10"></rect><rect x="300" y="60" width="70" height="10"></rect><rect x="90" y="70" width="10" height="10"></rect><rect x="110" y="70" width="10" height="10"></rect><rect x="170" y="70" width="20" height="10"></rect><rect x="200" y="70" width="10" height="10"></rect><rect x="230" y="70" width="10" height="10"></rect><rect x="280" y="70" width="10" height="10"></rect><rect x="0" y="80" width="40" height="10"></rect><rect x="60" y="80" width="10" height="10"></rect><rect x="80" y="80" width="10" height="10"></rect><rect x="140" y="80" width="20" height="10"></rect><rect x="170" y="80" width="10" height="10"></rect><rect x="210" y="80" width="10" height="10"></rect><rect x="230" y="80" width="10" height="10"></rect><rect x="280" y="80" width="20" height="10"></rect><rect x="320" y="80" width="30" height="10"></rect><rect x="360" y="80" width="10" height="10"></rect><rect x="0" y="90" width="10" height="10"></rect><rect x="20" y="90" width="30" height="10"></rect><rect x="80" y="90" width="20" height="10"></rect><rect x="140" y="90" width="10" height="10"></rect><rect x="170" y="90" width="60" height="10"></rect><rect x="260" y="90" width="10" height="10"></rect><rect x="280" y="90" width="10" height="10"></rect><rect x="310" y="90" width="10" height="10"></rect><rect x="330" y="90" width="30" height="10"></rect><rect x="10" y="100" width="60" height="10"></rect><rect x="80" y="100" width="10" height="10"></rect><rect x="100" y="100" width="10" height="10"></rect><rect x="140" y="100" width="10" height="10"></rect><rect x="160" y="100" width="30" height="10"></rect><rect x="210" y="100" width="30" height="10"></rect><rect x="260" y="100" width="10" height="10"></rect><rect x="280" y="100" width="10" height="10"></rect><rect x="320" y="100" width="10" height="10"></rect><rect x="340" y="100" width="20" height="10"></rect><rect x="10" y="110" width="10" height="10"></rect><rect x="30" y="110" width="10" height="10"></rect><rect x="50" y="110" width="10" height="10"></rect><rect x="70" y="110" width="10" height="10"></rect><rect x="90" y="110" width="10" height="10"></rect><rect x="110" y="110" width="40" height="10"></rect><rect x="160" y="110" width="10" height="10"></rect><rect x="180" y="110" width="20" height="10"></rect><rect x="220" y="110" width="10" height="10"></rect><rect x="250" y="110" width="30" height="10"></rect><rect x="290" y="110" width="10" height="10"></rect><rect x="320" y="110" width="10" height="10"></rect><rect x="340" y="110" width="30" height="10"></rect><rect x="0" y="120" width="10" height="10"></rect><rect x="40" y="120" width="40" height="10"></rect><rect x="90" y="120" width="10" height="10"></rect><rect x="110" y="120" width="10" height="10"></rect><rect x="140" y="120" width="10" height="10"></rect><rect x="170" y="120" width="40" height="10"></rect><rect x="220" y="120" width="20" height="10"></rect><rect x="260" y="120" width="10" height="10"></rect><rect x="300" y="120" width="10" height="10"></rect><rect x="320" y="120" width="30" height="10"></rect><rect x="360" y="120" width="10" height="10"></rect><rect x="10" y="130" width="10" height="10"></rect><rect x="50" y="130" width="10" height="10"></rect><rect x="70" y="130" width="10" height="10"></rect><rect x="100" y="130" width="20" height="10"></rect><rect x="140" y="130" width="10" height="10"></rect><rect x="160" y="130" width="10" height="10"></rect><rect x="260" y="130" width="20" height="10"></rect><rect x="290" y="130" width="60" height="10"></rect><rect x="360" y="130" width="10" height="10"></rect><rect x="20" y="140" width="10" height="10"></rect><rect x="50" y="140" width="30" height="10"></rect><rect x="100" y="140" width="10" height="10"></rect><rect x="120" y="140" width="20" height="10"></rect><rect x="180" y="140" width="50" height="10"></rect><rect x="260" y="140" width="10" height="10"></rect><rect x="290" y="140" width="20" height="10"></rect><rect x="320" y="140" width="20" height="10"></rect><rect x="350" y="140" width="10" height="10"></rect><rect x="0" y="150" width="20" height="10"></rect><rect x="40" y="150" width="20" height="10"></rect><rect x="120" y="150" width="10" height="10"></rect><rect x="140" y="150" width="10" height="10"></rect><rect x="190" y="150" width="10" height="10"></rect><rect x="210" y="150" width="10" height="10"></rect><rect x="230" y="150" width="10" height="10"></rect><rect x="310" y="150" width="10" height="10"></rect><rect x="330" y="150" width="10" height="10"></rect><rect x="360" y="150" width="10" height="10"></rect><rect x="50" y="160" width="20" height="10"></rect><rect x="90" y="160" width="10" height="10"></rect><rect x="110" y="160" width="10" height="10"></rect><rect x="130" y="160" width="20" height="10"></rect><rect x="170" y="160" width="20" height="10"></rect><rect x="210" y="160" width="40" height="10"></rect><rect x="280" y="160" width="10" height="10"></rect><rect x="340" y="160" width="20" height="10"></rect><rect x="0" y="170" width="10" height="10"></rect><rect x="20" y="170" width="40" height="10"></rect><rect x="90" y="170" width="20" height="10"></rect><rect x="120" y="170" width="10" height="10"></rect><rect x="200" y="170" width="10" height="10"></rect><rect x="220" y="170" width="10" height="10"></rect><rect x="240" y="170" width="20" height="10"></rect><rect x="270" y="170" width="10" height="10"></rect><rect x="300" y="170" width="10" height="10"></rect><rect x="330" y="170" width="10" height="10"></rect><rect x="350" y="170" width="20" height="10"></rect><rect x="10" y="180" width="10" height="10"></rect><rect x="30" y="180" width="10" height="10"></rect><rect x="50" y="180" width="30" height="10"></rect><rect x="90" y="180" width="10" height="10"></rect><rect x="110" y="180" width="60" height="10"></rect><rect x="200" y="180" width="10" height="10"></rect><rect x="270" y="180" width="20" height="10"></rect><rect x="300" y="180" width="30" height="10"></rect><rect x="340" y="180" width="30" height="10"></rect><rect x="10" y="190" width="20" height="10"></rect><rect x="40" y="190" width="10" height="10"></rect><rect x="70" y="190" width="20" height="10"></rect><rect x="120" y="190" width="10" height="10"></rect><rect x="170" y="190" width="20" height="10"></rect><rect x="200" y="190" width="10" height="10"></rect><rect x="230" y="190" width="10" height="10"></rect><rect x="280" y="190" width="10" height="10"></rect><rect x="300" y="190" width="20" height="10"></rect><rect x="330" y="190" width="10" height="10"></rect><rect x="350" y="190" width="10" height="10"></rect><rect x="30" y="200" width="10" height="10"></rect><rect x="50" y="200" width="40" height="10"></rect><rect x="100" y="200" width="20" height="10"></rect><rect x="140" y="200" width="10" height="10"></rect><rect x="160" y="200" width="10" height="10"></rect><rect x="180" y="200" width="10" height="10"></rect><rect x="200" y="200" width="20" height="10"></rect><rect x="240" y="200" width="60" height="10"></rect><rect x="310" y="200" width="20" height="10"></rect><rect x="350" y="200" width="10" height="10"></rect><rect x="30" y="210" width="20" height="10"></rect><rect x="70" y="210" width="10" height="10"></rect><rect x="90" y="210" width="20" height="10"></rect><rect x="120" y="210" width="10" height="10"></rect><rect x="140" y="210" width="10" height="10"></rect><rect x="160" y="210" width="40" height="10"></rect><rect x="250" y="210" width="10" height="10"></rect><rect x="280" y="210" width="10" height="10"></rect><rect x="310" y="210" width="10" height="10"></rect><rect x="350" y="210" width="10" height="10"></rect><rect x="30" y="220" width="10" height="10"></rect><rect x="50" y="220" width="30" height="10"></rect><rect x="100" y="220" width="40" height="10"></rect><rect x="160" y="220" width="10" height="10"></rect><rect x="180" y="220" width="10" height="10"></rect><rect x="200" y="220" width="20" height="10"></rect><rect x="230" y="220" width="20" height="10"></rect><rect x="260" y="220" width="10" height="10"></rect><rect x="300" y="220" width="20" height="10"></rect><rect x="10" y="230" width="20" height="10"></rect><rect x="40" y="230" width="10" height="10"></rect><rect x="70" y="230" width="20" height="10"></rect><rect x="100" y="230" width="10" height="10"></rect><rect x="120" y="230" width="20" height="10"></rect><rect x="160" y="230" width="10" height="10"></rect><rect x="220" y="230" width="10" height="10"></rect><rect x="250" y="230" width="60" height="10"></rect><rect x="320" y="230" width="30" height="10"></rect><rect x="0" y="240" width="10" height="10"></rect><rect x="20" y="240" width="20" height="10"></rect><rect x="60" y="240" width="10" height="10"></rect><rect x="80" y="240" width="10" height="10"></rect><rect x="100" y="240" width="80" height="10"></rect><rect x="190" y="240" width="10" height="10"></rect><rect x="220" y="240" width="10" height="10"></rect><rect x="250" y="240" width="60" height="10"></rect><rect x="320" y="240" width="50" height="10"></rect><rect x="40" y="250" width="10" height="10"></rect><rect x="90" y="250" width="20" height="10"></rect><rect x="120" y="250" width="40" height="10"></rect><rect x="170" y="250" width="30" height="10"></rect><rect x="210" y="250" width="20" height="10"></rect><rect x="240" y="250" width="10" height="10"></rect><rect x="270" y="250" width="80" height="10"></rect><rect x="360" y="250" width="10" height="10"></rect><rect x="10" y="260" width="30" height="10"></rect><rect x="60" y="260" width="30" height="10"></rect><rect x="130" y="260" width="10" height="10"></rect><rect x="180" y="260" width="20" height="10"></rect><rect x="220" y="260" width="10" height="10"></rect><rect x="240" y="260" width="20" height="10"></rect><rect x="290" y="260" width="20" height="10"></rect><rect x="320" y="260" width="20" height="10"></rect><rect x="350" y="260" width="10" height="10"></rect><rect x="0" y="270" width="10" height="10"></rect><rect x="20" y="270" width="30" height="10"></rect><rect x="110" y="270" width="20" height="10"></rect><rect x="140" y="270" width="30" height="10"></rect><rect x="210" y="270" width="20" height="10"></rect><rect x="280" y="270" width="40" height="10"></rect><rect x="360" y="270" width="10" height="10"></rect><rect x="20" y="280" width="20" height="10"></rect><rect x="60" y="280" width="10" height="10"></rect><rect x="90" y="280" width="10" height="10"></rect><rect x="110" y="280" width="30" height="10"></rect><rect x="170" y="280" width="20" height="10"></rect><rect x="210" y="280" width="30" height="10"></rect><rect x="270" y="280" width="60" height="10"></rect><rect x="340" y="280" width="30" height="10"></rect><rect x="80" y="290" width="10" height="10"></rect><rect x="110" y="290" width="30" height="10"></rect><rect x="170" y="290" width="10" height="10"></rect><rect x="190" y="290" width="20" height="10"></rect><rect x="220" y="290" width="50" height="10"></rect><rect x="280" y="290" width="10" height="10"></rect><rect x="320" y="290" width="10" height="10"></rect><rect x="340" y="290" width="10" height="10"></rect><rect x="360" y="290" width="10" height="10"></rect><rect x="0" y="300" width="70" height="10"></rect><rect x="140" y="300" width="20" height="10"></rect><rect x="200" y="300" width="20" height="10"></rect><rect x="240" y="300" width="10" height="10"></rect><rect x="280" y="300" width="10" height="10"></rect><rect x="300" y="300" width="10" height="10"></rect><rect x="320" y="300" width="10" height="10"></rect><rect x="340" y="300" width="30" height="10"></rect><rect x="0" y="310" width="10" height="10"></rect><rect x="60" y="310" width="10" height="10"></rect><rect x="120" y="310" width="10" height="10"></rect><rect x="170" y="310" width="30" height="10"></rect><rect x="220" y="310" width="30" height="10"></rect><rect x="270" y="310" width="20" height="10"></rect><rect x="320" y="310" width="20" height="10"></rect><rect x="360" y="310" width="10" height="10"></rect><rect x="0" y="320" width="10" height="10"></rect><rect x="20" y="320" width="30" height="10"></rect><rect x="60" y="320" width="10" height="10"></rect><rect x="90" y="320" width="10" height="10"></rect><rect x="110" y="320" width="10" height="10"></rect><rect x="140" y="320" width="50" height="10"></rect><rect x="210" y="320" width="10" height="10"></rect><rect x="250" y="320" width="20" height="10"></rect><rect x="280" y="320" width="60" height="10"></rect><rect x="0" y="330" width="10" height="10"></rect><rect x="20" y="330" width="30" height="10"></rect><rect x="60" y="330" width="10" height="10"></rect><rect x="80" y="330" width="20" height="10"></rect><rect x="110" y="330" width="10" height="10"></rect><rect x="140" y="330" width="10" height="10"></rect><rect x="160" y="330" width="10" height="10"></rect><rect x="190" y="330" width="50" height="10"></rect><rect x="250" y="330" width="10" height="10"></rect><rect x="270" y="330" width="20" height="10"></rect><rect x="300" y="330" width="10" height="10"></rect><rect x="320" y="330" width="20" height="10"></rect><rect x="0" y="340" width="10" height="10"></rect><rect x="20" y="340" width="30" height="10"></rect><rect x="60" y="340" width="10" height="10"></rect><rect x="80" y="340" width="20" height="10"></rect><rect x="110" y="340" width="10" height="10"></rect><rect x="130" y="340" width="10" height="10"></rect><rect x="160" y="340" width="20" height="10"></rect><rect x="200" y="340" width="20" height="10"></rect><rect x="230" y="340" width="20" height="10"></rect><rect x="270" y="340" width="10" height="10"></rect><rect x="290" y="340" width="60" height="10"></rect><rect x="0" y="350" width="10" height="10"></rect><rect x="60" y="350" width="10" height="10"></rect><rect x="80" y="350" width="10" height="10"></rect><rect x="110" y="350" width="40" height="10"></rect><rect x="160" y="350" width="10" height="10"></rect><rect x="180" y="350" width="30" height="10"></rect><rect x="220" y="350" width="20" height="10"></rect><rect x="250" y="350" width="10" height="10"></rect><rect x="290" y="350" width="40" height="10"></rect><rect x="340" y="350" width="10" height="10"></rect><rect x="0" y="360" width="70" height="10"></rect><rect x="80" y="360" width="10" height="10"></rect><rect x="120" y="360" width="30" height="10"></rect><rect x="210" y="360" width="20" height="10"></rect><rect x="260" y="360" width="10" height="10"></rect><rect x="290" y="360" width="10" height="10"></rect><rect x="310" y="360" width="60" height="10"></rect></svg>